<?xml version="1.0" standalone="yes"?>
<svg width="466" height="461">
<path style="stroke:#000000; fill:none;" d="M223 91C213.339 112.693 204.381 137.314 201.834 161C201.37 165.32 196.958 179.957 200.618 182.972C206.262 187.623 219.596 182.15 226 182L220.45 205L214.385 245L211 274L223 269M31 95C30.9975 117.882 25 140.699 25 164C25 170.381 22.7635 181.911 25.6034 187.682C27.4429 191.42 41.0012 191.446 45 192C63.1187 194.511 90.2964 200.233 108 195L105 192C102.689 199.308 103.597 206.527 102.715 214C99.3249 242.712 99.5927 268.003 107 296M249 114C242.514 134.285 228.97 158.782 228 180L240 176M117 118L109.888 153L105 192M293 118C290.296 138.938 280.153 159.964 273.59 180C272.376 183.706 266.845 198.185 270.607 200.932C274.234 203.58 287.671 197.461 290.347 194.571C293.56 191.101 293.679 185.208 295.63 181C301.436 168.476 306.099 154.753 315 144M371 129C369.663 136.525 365.178 142.33 361.819 149C356.525 159.512 352.094 170.662 346.489 181C344.234 185.16 335.305 195.986 336.748 200.678C338.164 205.287 353.778 200.273 357 199.228C376.142 193.019 376.933 166.724 389 152M228 180L226 182M292 193L310 183M369 195L386 191M109 196L159 196M289 198L272.093 254L269 269M365 199L338.417 264L327 292"/>
</svg>
