<?xml version="1.0" encoding="UTF-8" standalone="no"?>
<!-- Created with Inkscape (http://www.inkscape.org/) -->

<svg
   width="210mm"
   height="297mm"
   viewBox="0 0 210 297"
   version="1.1"
   id="svg5"
   inkscape:version="1.2.2 (732a01da63, 2022-12-09)"
   sodipodi:docname="complexsmiley.svg"
   xmlns:inkscape="http://www.inkscape.org/namespaces/inkscape"
   xmlns:sodipodi="http://sodipodi.sourceforge.net/DTD/sodipodi-0.dtd"
   xmlns="http://www.w3.org/2000/svg"
   xmlns:svg="http://www.w3.org/2000/svg">
  <sodipodi:namedview
     id="namedview7"
     pagecolor="#ffffff"
     bordercolor="#000000"
     borderopacity="0.25"
     inkscape:showpageshadow="2"
     inkscape:pageopacity="0.0"
     inkscape:pagecheckerboard="0"
     inkscape:deskcolor="#d1d1d1"
     inkscape:document-units="mm"
     showgrid="false"
     inkscape:zoom="0.71624579"
     inkscape:cx="397.21001"
     inkscape:cy="672.95334"
     inkscape:window-width="1920"
     inkscape:window-height="991"
     inkscape:window-x="-9"
     inkscape:window-y="-9"
     inkscape:window-maximized="1"
     inkscape:current-layer="layer1" />
  <defs
     id="defs2" />
  <g
     inkscape:label="Ebene 1"
     inkscape:groupmode="layer"
     id="layer1">
    <path
       style="fill:#000000;stroke-width:0.264583"
       id="path173"
       d="m 36.09296,55.440436 c -3.192608,4.260639 -5.377489,9.120018 -7.414024,14.005915 -0.809916,2.254308 -1.832639,4.474382 -2.353588,6.82608 -0.03427,0.154702 -0.394926,1.78725 0.03047,2.109994 1.246208,0.945476 2.689765,1.597808 4.034647,2.396712 0.384463,-0.0154 0.771414,1.54e-4 1.153385,-0.04617 1.601229,-0.194175 3.163689,-0.699082 4.700828,-1.159801 2.810013,-0.842235 0.465347,-0.133911 3.193018,-0.960575 3.046047,-0.934905 5.804532,-2.547556 8.536662,-4.148968 1.795145,-1.057921 3.221048,-2.609673 4.479407,-4.247584 1.19113,-1.645991 1.67727,-3.614679 2.0364,-5.580486 0.242305,-1.739897 0.295489,-3.918574 -0.260205,-5.613529 -0.107146,-0.326816 -0.275648,-0.630216 -0.413472,-0.945322 -0.693801,-1.090364 -1.634281,-1.987762 -2.741761,-2.658618 -2.203688,-1.334884 -3.951565,-2.548358 -6.283282,-3.303437 -0.687518,-0.222639 -1.394408,-0.38029 -2.091608,-0.570436 -2.334189,-0.505627 -4.696775,-0.905079 -7.071008,-1.170326 -1.376789,-0.153816 -2.291961,-0.265033 -3.652986,-0.05699 -0.488315,0.07464 -0.95671,0.246584 -1.435063,0.369874 -0.420902,0.29617 -0.878538,0.546029 -1.2627,0.888508 -1.226119,1.093081 -2.301261,2.973607 -2.62581,4.595172 -0.056,0.279808 -0.04638,0.568828 -0.06958,0.853242 0.180605,1.367618 1.128043,2.190168 2.190176,2.934353 0.457923,0.321173 0.809316,0.756981 1.174247,1.173774 0,0 3.618088,1.526257 3.618088,1.526257 v 0 c -0.374285,-0.425209 -0.708592,-0.885672 -1.135007,-1.261787 -1.002811,-0.684689 -2.054937,-1.337011 -2.387312,-2.589586 0.0019,-0.262641 -0.03197,-0.527955 0.0054,-0.787924 0.230775,-1.604047 1.208688,-3.34845 2.436577,-4.393499 0.361045,-0.307281 0.795287,-0.51635 1.19293,-0.774525 0.456324,-0.110008 0.903972,-0.265941 1.368975,-0.330023 1.271802,-0.175262 2.272966,-0.06735 3.552917,0.07202 2.369008,0.257964 4.726252,0.657463 7.042571,1.217652 0.704263,0.21236 1.419288,0.391848 2.112793,0.63708 0.549415,0.194281 1.880756,1.196046 1.610754,0.679617 -0.330882,-0.632876 -1.183703,-0.812467 -1.834247,-1.107091 -0.437574,-0.19817 0.810135,0.518972 1.188659,0.814713 0.322424,0.251907 0.625932,0.529397 0.909381,0.824479 0.24307,0.253042 0.443857,0.543549 0.665784,0.815324 0.149095,0.290972 0.331549,0.567139 0.447283,0.872918 0.218427,0.577096 0.325456,1.412415 0.396507,2.013432 0.136713,1.156433 0.185198,2.314194 -0.04891,3.464163 -0.348988,1.906119 -0.820536,3.810272 -1.979102,5.404429 -1.211109,1.610683 -2.606593,3.108936 -4.346689,4.157081 -2.678427,1.641287 -5.436981,3.162596 -8.455673,4.091521 -1.1245,0.345988 -2.046165,0.633564 -3.178622,0.965417 -1.508284,0.441987 -3.109806,0.966071 -4.697896,1.016011 -0.363025,0.0114 -0.722943,-0.07089 -1.084414,-0.106333 0.845699,0.558998 1.611665,1.263147 2.53709,1.676995 0.234706,0.10496 -0.305009,-0.438433 -0.337728,-0.693447 -0.05404,-0.421163 0.01587,-0.852125 0.08568,-1.270963 0.395597,-2.373775 1.372185,-4.624982 2.14453,-6.884437 0.432906,-1.056198 0.835205,-2.125464 1.298718,-3.168591 1.673421,-3.765995 3.699171,-7.402383 6.397617,-10.536037 0,0 -3.380848,-2.036252 -3.380848,-2.036252 z" />
    <path
       style="fill:#000000;stroke-width:0.264583"
       id="path175"
       d="m 148.48585,51.835018 c -1.71706,-0.835626 -3.60423,-1.161042 -5.47423,-1.457889 -3.7677,-0.598093 -5.08091,-0.701368 -9.10332,-1.167892 -2.02339,-0.183081 -4.04428,-0.396213 -6.07016,-0.549241 -3.91012,-0.295357 -10.81305,-0.662196 -14.65686,-0.793525 -4.62401,-0.157982 -8.97365,-0.262686 -13.584503,0.02898 -1.799195,0.113811 -3.586334,0.372097 -5.3795,0.558144 -1.462386,0.346128 -2.964339,0.554694 -4.387159,1.038386 -2.207752,0.750531 -4.746559,2.193264 -6.446523,3.823349 -1.735865,1.664509 -3.200402,4.023217 -4.302096,6.135036 -0.529714,1.0154 -0.942154,2.087793 -1.413232,3.13169 -1.151496,3.327967 -2.016881,6.870618 -1.409144,10.40855 0.367699,2.140561 0.717981,2.575356 1.611381,4.560927 0.582083,0.786365 1.09152,1.632101 1.746253,2.359091 1.683954,1.8698 3.759057,3.439575 5.888251,4.754266 2.287646,1.412529 4.613826,2.766902 6.991779,4.021458 3.552862,1.874414 6.239542,2.72856 10.017153,4.134151 7.42569,2.511899 15.10811,4.30452 22.93914,4.884463 5.17431,0.383193 7.21113,0.222787 12.37232,0.120274 6.54121,-0.400151 12.49515,-1.16141 18.08146,-4.850609 2.84593,-1.879452 3.29952,-2.66084 5.57345,-5.118251 0.66112,-0.979588 1.41784,-1.901044 1.98336,-2.938764 1.541,-2.827723 2.39147,-6.095457 2.407,-9.313259 0.0106,-2.194102 -0.24597,-2.757379 -0.73712,-4.801558 -0.28283,-0.61723 -0.50693,-1.264909 -0.84848,-1.851686 -1.80801,-3.106184 -5.12439,-5.070843 -8.09767,-6.892679 -3.49873,-2.052407 -6.82137,-4.385352 -10.3051,-6.460728 -1.50941,-0.870699 -3.01882,-1.741397 -4.52824,-2.612096 0.73318,0.421722 2.93472,1.683319 2.19951,1.265161 -1.39387,-0.792779 -2.7833,-1.593353 -4.17551,-2.389037 -4.21305,-2.407851 10.92191,6.309884 -1.85311,-1.082553 0,0 3.0485,2.468496 3.0485,2.468496 v 0 c -0.94495,-0.547373 -3.77715,-2.194039 -2.83485,-1.642118 1.30975,0.767144 2.62275,1.528725 3.9372,2.287786 0.23569,0.136102 0.94678,0.537178 0.71311,0.397642 -0.80204,-0.478935 -3.23145,-1.876041 -2.41844,-1.415976 1.75878,0.995252 7.24266,4.194808 2.39179,1.368002 3.51989,2.049187 6.8427,4.413395 10.35594,6.475256 2.9616,1.775111 6.27506,3.684776 8.16615,6.688008 0.35779,0.568193 0.60505,1.198888 0.90758,1.798331 0.55015,2.012325 0.82441,2.557777 0.86568,4.734647 0.0604,3.184289 -0.73606,6.382827 -2.24776,9.187799 -0.55183,1.023945 -1.2899,1.935998 -1.93485,2.903998 -2.21432,2.401096 -2.7004,3.212698 -5.47285,5.050813 -5.41294,3.588732 -11.41541,4.468779 -17.76856,4.867974 -5.26402,0.09943 -7.06957,0.261186 -12.35232,-0.158099 -7.83293,-0.621686 -15.51543,-2.442676 -22.93696,-4.983205 -6.097868,-2.315557 -12.452196,-4.535805 -17.001275,-9.464752 -0.643887,-0.697658 -1.15112,-1.51003 -1.726682,-2.265045 -0.911584,-1.945931 -1.246647,-2.336284 -1.646361,-4.441335 -0.6618,-3.485266 0.105365,-7.002042 1.193932,-10.311342 0.454009,-1.038148 0.844883,-2.106255 1.362025,-3.114442 1.109392,-2.162812 2.465382,-4.316391 4.241561,-6.008296 1.672151,-1.592812 4.114716,-3.008452 6.274816,-3.769121 1.38275,-0.486926 2.843819,-0.713505 4.265727,-1.070258 1.754595,-0.203597 3.502217,-0.480698 5.263787,-0.610786 4.54208,-0.335417 8.87142,-0.272214 13.42871,-0.110805 4.17823,0.147984 10.59153,0.557538 14.80594,0.92147 2.05465,0.177427 4.10357,0.416047 6.15535,0.624073 4.0658,0.54129 5.5426,0.673864 9.36288,1.394756 1.94863,0.367707 3.8808,0.817859 5.66484,1.705271 0,0 -3.10371,-2.452901 -3.10371,-2.452901 z" />
    <path
       style="fill:#000000;stroke-width:0.264583"
       id="path177"
       d="m 15.61855,145.31928 c 0.03646,0.38778 0.04295,0.77956 0.109394,1.16335 0.708737,4.09401 2.509894,8.12547 4.287574,11.84633 2.548538,4.91341 5.847848,9.37433 9.226708,13.73818 3.069106,3.7085 6.093584,7.46259 9.708779,10.66465 2.69045,2.38298 3.279937,2.66858 6.228824,4.7304 3.612419,2.1952 5.757785,3.59119 9.982845,5.52455 1.472695,0.6739 3.032607,1.14232 4.576149,1.63267 5.237975,1.664 10.635165,2.7397 16.004468,3.8705 9.701027,1.87761 19.509602,3.10534 29.361099,3.81213 8.55373,0.46982 17.05702,-0.81309 25.43577,-2.39159 4.92547,-1.05391 9.69481,-2.7392 14.14508,-5.1029 2.60869,-1.38558 3.25486,-1.89252 5.70721,-3.50656 3.27469,-2.33297 6.39222,-4.95328 9.01017,-8.01941 1.28431,-1.50419 1.89218,-2.44447 3.02432,-4.051 2.82716,-4.07452 4.86533,-8.59028 6.70822,-13.17136 1.78077,-4.37537 3.23982,-8.87051 4.90353,-13.2898 0.19479,-0.52296 0.38958,-1.04592 0.58437,-1.56888 0,0 -3.30732,-1.83211 -3.30732,-1.83211 v 0 c -0.18443,0.52779 -0.36885,1.05558 -0.55328,1.58337 -1.59897,4.44233 -3.01525,8.95293 -4.84089,13.31167 -1.84038,4.55181 -3.83313,9.05825 -6.66157,13.10105 -1.0636,1.51994 -1.7717,2.60229 -2.97107,4.0286 -2.57236,3.05909 -5.64734,5.67732 -8.89976,7.98232 -2.48936,1.63705 -3.02267,2.0693 -5.66913,3.47879 -4.40392,2.34551 -9.11514,4.03878 -13.99173,5.09267 -1.424,0.27132 -2.8426,0.57274 -4.27202,0.81397 -6.97153,1.17651 -14.06591,1.82558 -21.13673,1.48798 -9.790436,-0.66881 -19.544927,-1.83487 -29.178748,-3.73383 -5.388869,-1.14211 -10.807011,-2.2369 -16.048894,-3.96379 -1.565346,-0.51569 -3.074077,-1.19214 -4.633955,-1.72415 -0.229113,-0.0781 -0.504108,0.01 -0.719076,-0.10153 -1.144098,-0.59231 -2.210076,-1.32467 -3.315111,-1.98701 -2.929368,-2.01984 -3.569054,-2.33468 -6.242404,-4.67883 -3.596939,-3.154 -6.593075,-6.87291 -9.610677,-10.56381 -3.358404,-4.3583 -6.676722,-8.78574 -9.251011,-13.66595 -1.7399,-3.59176 -3.572297,-7.63859 -4.147,-11.6257 -0.05281,-0.36635 -0.0449,-0.73891 -0.06735,-1.10837 0,0 -3.48678,-1.7766 -3.48678,-1.7766 z" />
    <path
       style="fill:#000000;stroke-width:0.264583"
       id="path179"
       d="m 71.233005,122.56721 c -0.839869,1.39944 -1.390044,2.96823 -1.67546,4.57094 -0.03741,1.86334 0.527576,2.86134 1.812321,4.15175 1.986476,1.43312 2.232634,1.66659 5.478071,3.2135 0.858102,0.40901 3.436707,0.77807 4.206968,0.88671 2.397231,0.3381 2.764644,0.32343 5.166873,0.49579 3.524628,-0.0366 7.168097,-0.23088 10.531123,-1.40434 0.438076,-0.15286 0.85354,-0.36411 1.280311,-0.54617 1.567378,-0.9425 2.425598,-2.40093 2.824028,-4.15636 0.0835,-0.3679 0.16515,-0.74228 0.166,-1.11954 8e-4,-0.39318 -0.10722,-0.77902 -0.16083,-1.16853 -0.14829,-0.37472 -0.25662,-0.76783 -0.44485,-1.12417 -1.179981,-2.23387 -3.483115,-3.68327 -5.562235,-4.95897 -2.809248,-1.54541 -3.929517,-2.40533 -6.459431,-3.31411 -2.256018,-0.81039 -4.599268,-1.2563 -6.948655,-1.68882 -2.59249,-0.39195 -5.27577,-0.88266 -7.860828,-0.22114 -1.205384,0.4468 -1.5523,1.50737 -1.859455,2.64424 -0.198842,0.68547 -0.10138,0.34573 -0.2925,1.01917 0,0 3.453728,1.87991 3.453728,1.87991 v 0 c 0.185336,-0.67483 0.08854,-0.33279 0.290899,-1.02598 0.262303,-1.01087 0.52474,-1.94114 1.617139,-2.30236 2.526863,-0.60413 5.135919,-0.1115 7.660468,0.27838 2.337138,0.43926 4.662969,0.90589 6.896295,1.74806 0.55871,0.21068 1.686116,1.29491 1.649357,0.69893 -0.04083,-0.66193 -1.115129,-0.71819 -1.672693,-1.07729 2.061538,1.2203 4.322654,2.59519 5.593218,4.71359 0.196085,0.32693 0.319405,0.69233 0.47911,1.03849 0.06995,0.35489 0.196059,0.70322 0.209838,1.06468 0.01373,0.36028 -0.05688,0.7206 -0.12831,1.07399 -0.34999,1.73151 -1.100312,2.95773 -2.629794,3.87785 -0.410657,0.17444 -0.811337,0.37455 -1.231974,0.52334 -3.304085,1.16868 -6.877018,1.39167 -10.348399,1.37149 -2.543162,-0.19432 -5.100984,-0.38703 -7.586295,-1.00573 -0.618408,-0.15394 -2.01445,-1.19397 -1.819407,-0.58727 0.244925,0.76186 1.350558,0.85934 2.038377,1.26841 0.324744,0.19313 -0.632458,-0.41357 -0.948688,-0.62035 -1.238559,-1.11216 -1.904709,-2.08762 -1.956739,-3.80133 0.230682,-1.52541 0.728311,-3.04847 1.608119,-4.32812 0,0 -3.3757,-2.06864 -3.3757,-2.06864 z" />
  </g>
</svg>
