<?xml version="1.0" standalone="yes"?>
<svg width="432" height="361">
<path style="stroke:#b7b7b7; fill:none;" d="M150 55L149 56"/>
<path style="stroke:#000000; fill:none;" d="M152 56L114 111L83 91"/>
<path style="stroke:#f7f7f7; fill:none;" d="M151 60L150 61"/>
<path style="stroke:#484848; fill:none;" d="M147 66L145 68"/>
<path style="stroke:#f7f7f7; fill:none;" d="M147 67L146 68"/>
<path style="stroke:#080808; fill:none;" d="M141 68L140 69"/>
<path style="stroke:#202020; fill:none;" d="M221 74L223 73"/>
<path style="stroke:#9f9f9f; fill:none;" d="M224 73L225 74"/>
<path style="stroke:#080808; fill:none;" d="M224 74L225 75"/>
<path style="stroke:#878787; fill:none;" d="M221 75L222 76"/>
<path style="stroke:#000000; fill:none;" d="M223 75C232.619 89.4142 246.233 103.472 260 114L269 100"/>
<path style="stroke:#7f7f7f; fill:none;" d="M231 84L232 85"/>
<path style="stroke:#f7f7f7; fill:none;" d="M228 86L230 88"/>
<path style="stroke:#484848; fill:none;" d="M229 86L230 87"/>
<path style="stroke:#404040; fill:none;" d="M83 89L82 90"/>
<path style="stroke:#7f7f7f; fill:none;" d="M97 99L98 100M268 99L265 102"/>
<path style="stroke:#f7f7f7; fill:none;" d="M94 101L96 103"/>
<path style="stroke:#484848; fill:none;" d="M95 101L96 102M270 101L267 104"/>
<path style="stroke:#f7f7f7; fill:none;" d="M271 101L267 105"/>
<path style="stroke:#7f7f7f; fill:none;" d="M250 102L256 108"/>
<path style="stroke:#f7f7f7; fill:none;" d="M247 104L254 111"/>
<path style="stroke:#484848; fill:none;" d="M248 104L254 110"/>
<path style="stroke:#000000; fill:none;" d="M115 110L147 133"/>
<path style="stroke:#e7e7e7; fill:none;" d="M260 110L259 111"/>
<path style="stroke:#000000; fill:none;" d="M112 112L87 150"/>
<path style="stroke:#7f7f7f; fill:none;" d="M109 114L106 117"/>
<path style="stroke:#000000; fill:none;" d="M260 114L235 144"/>
<path style="stroke:#484848; fill:none;" d="M112 115L109 118"/>
<path style="stroke:#e7e7e7; fill:none;" d="M119 115L120 116"/>
<path style="stroke:#7f7f7f; fill:none;" d="M257 115L252 120"/>
<path style="stroke:#000000; fill:none;" d="M259 115L285 153"/>
<path style="stroke:#f7f7f7; fill:none;" d="M112 116L108 120"/>
<path style="stroke:#484848; fill:none;" d="M258 118L254 122"/>
<path style="stroke:#f7f7f7; fill:none;" d="M259 118L254 123"/>
<path style="stroke:#080808; fill:none;" d="M103 120L102 121"/>
<path style="stroke:#606060; fill:none;" d="M127 122L128 123"/>
<path style="stroke:#9f9f9f; fill:none;" d="M142 126L146 130"/>
<path style="stroke:#7f7f7f; fill:none;" d="M269 126L276 133"/>
<path style="stroke:#080808; fill:none;" d="M142 127L146 131"/>
<path style="stroke:#f7f7f7; fill:none;" d="M266 128L273 135"/>
<path style="stroke:#484848; fill:none;" d="M267 128L273 134"/>
<path style="stroke:#878787; fill:none;" d="M140 129L144 133"/>
<path style="stroke:#f7f7f7; fill:none;" d="M243 132L242 133"/>
<path style="stroke:#7f7f7f; fill:none;" d="M240 136L236 140"/>
<path style="stroke:#484848; fill:none;" d="M242 138L238 142"/>
<path style="stroke:#f7f7f7; fill:none;" d="M243 138L238 143"/>
<path style="stroke:#484848; fill:none;" d="M90 147L89 148"/>
<path style="stroke:#f7f7f7; fill:none;" d="M91 147L89 149"/>
<path style="stroke:#9f9f9f; fill:none;" d="M285 150L287 152"/>
<path style="stroke:#080808; fill:none;" d="M285 151L287 153"/>
<path style="stroke:#878787; fill:none;" d="M282 152L284 154"/>
<path style="stroke:#000000; fill:none;" d="M127 189L234 187"/>
<path style="stroke:#202020; fill:none;" d="M126 188L125 189"/>
<path style="stroke:#000000; fill:none;" d="M225 190C225 197.392 224.609 218.955 214.995 221.248C203.005 224.108 204 202.061 204 196"/>
<path style="stroke:#080808; fill:none;" d="M208 215L211 218"/>
<path style="stroke:#585858; fill:none;" d="M218 222L217 223"/>
</svg>
