<?xml version="1.0" standalone="yes"?>
<svg width="400" height="400">
<path style="stroke:#000000; fill:none;" d="M3 6C9.51286 20.6345 23.1252 29.6422 37 36.2191C63.4145 48.7403 92.7402 54.9253 121 61.625C133.951 64.6955 156.211 67.9159 165.606 78.2137C177.543 91.2975 154.658 116.889 145.961 126C136.907 135.485 124.623 143.721 117.775 155C105.829 174.677 110.596 203.162 124.464 220C142.496 241.896 167.766 236.231 193 238.09C218.116 239.941 245.398 247.674 269 256.321C278.212 259.696 289.681 264.247 296.671 271.325C306.148 280.919 311.7 296.553 318.808 308C330.306 326.516 342.957 345.733 357.424 361.985C369.598 375.66 391.05 382.645 399 400"/>
</svg>
