<?xml version="1.0" standalone="yes"?>
<svg width="200" height="200">
<path style="stroke:#000000; fill:none;" d="M59 14C77.0247 14.9251 93.0587 27.7827 111 27.9961C115.882 28.0542 131.749 22.4953 134.487 24.6582C137.707 27.2017 137.705 33.3209 138.275 37C139.53 45.1121 140.543 56.3609 147 62C149.43 56.8715 152.472 51.6232 153.532 46C156.436 30.6103 152.269 19.3538 172 16M13 21C24.8122 31.189 39.5 37.3492 55 38.8302C76.8136 40.9145 98.865 35.7932 116.711 52.4676C138.636 72.9537 129.738 91.0022 110 108.285C104.683 112.94 88.839 122.379 91.9012 130.985C95.1921 140.234 109.566 145.451 118 148.258C139.205 155.314 166.099 157.185 183 173M174 34C173.646 51.1364 175.815 75.2089 168.08 90.9846C163.77 99.7759 157.86 93.7548 151.225 96.6073C144.228 99.6149 144.253 114.089 146 120M17 55C30.0164 51.901 58.8631 56.5569 70 64M93 67L96.4668 94.9992L86.588 106.108L79 120M30 77C44.0199 77 66.5047 78.3988 78 87C65.5207 97.8127 45.265 95.1263 32.1674 104.228C26.5091 108.161 35.7366 112.14 33.8241 116.776C31.592 122.187 22.0687 123.12 19.0471 128.372C17.1152 131.73 20.6868 133.82 20.5347 137C20.3645 140.559 15.9492 142.374 15.4259 146.004C14.5505 152.078 22.5138 161.427 25 167C36.4556 160.744 23.9336 132.376 45.9414 132.847C50.896 132.953 49.9831 139.657 50.0008 143C50.0343 149.368 51.4125 155.603 50.9452 162C50.7306 164.938 48.6064 168.105 49.0177 170.985C49.7831 176.342 65.1667 184.403 69.9961 186.082C85.1707 191.358 67.8925 159.593 78.0586 159.448C95.4285 159.201 110.563 173.986 123.871 182.138C128.217 184.8 129.541 188.13 135 189M169 119C172.605 126.57 181.2 131.496 188 136"/>
</svg>
