<?xml version="1.0" standalone="yes"?>
<svg width="200" height="200">
<path style="stroke:#000000; fill:none;" d="M0 4L38 40L105 106.996L168 169L198 200M111 7C108.287 9.94492 105.705 13.0022 103.05 16C97.4095 22.3692 91.5232 35.9088 106 35.8017C113.724 35.7446 124.471 30.2469 132 28L104 15M185 149C183.236 135.119 180.194 121.03 180.019 107C179.749 85.506 182.937 63.7687 180.83 42C180.308 36.6005 179.426 30.3723 175.722 26.1698C172.493 22.5059 162.919 16.5257 165.495 10.3179C168.552 2.95271 183.671 12.3948 187 15M135 10C132.409 10 125.701 8.86539 124.176 11.5995C121.116 17.084 134.84 20.109 137.999 19.9259C143.822 19.5885 146.293 14.0097 151.004 11.3719C155.141 9.05515 159.483 10.0723 164 10M80 16C70.718 16.0061 61.9254 18.7477 53 21.1512C49.3482 22.1346 43.9199 24.6059 40.1335 23.3071C35.9807 21.8826 32.6818 11.9414 38.1481 10.3179C46.4795 7.84355 60.0801 11 69 11M32 11L35 11M52 12L52 15M95 12L103 16M158 12C153.959 23.0863 158.352 32.8824 159.714 44C160.457 50.0661 158.674 55.9373 159.09 62C159.72 71.2079 162 79.6093 162 89M77 26C83.9163 36.4541 89.5041 47.8773 96.9236 58C102.179 65.1702 109.386 71.9533 111 81M133 29C134.876 29.6377 136.413 30.1858 138.005 31.4344C152.289 42.6376 123.839 46.927 133.742 59.767C140.93 69.0859 147.097 46.894 144 41M8 37C6.35109 29.7547 12.9987 31.3685 18 32M49 31L66 35M120 42L120 43M116 45C115.152 50.7648 111.517 57.148 112.268 63C114.033 76.7514 123.622 85.7812 131.006 96.1844C136.45 103.854 139.07 113.56 143 122M7 48L23.4275 66.0039L21.5278 92L27.6821 102L31 115M29 50L44 65M78 59L78 60M170 60L170 61M158 104C164.608 92.1557 145.478 93.4221 143.333 83.9961C142.107 78.612 148.62 72.8081 146.748 68.2747C145.565 65.4116 141.019 64.1851 138.818 66.4221C123.357 82.1361 151.177 93.3706 156.067 104.004C157.635 107.414 155.098 111.736 154 115L153 112M32 71C29.0318 82.4727 28.8253 102.045 39.1335 110.49C47.6419 117.461 68.7116 116.741 79 115L59 88M49 92C46.3494 80.8666 50.4195 66.0964 64 74.8179C74.0439 81.2682 82.7415 92.8651 83 105M13 77C12.9885 94.3485 -2.73618 121.91 21 128.572C24.3368 129.508 27.546 129.928 31 130M40 98L54 103M124 104L124 105M79 114C83.5325 117.907 88.0211 120.628 94 121.679C98.2929 122.433 104.628 121.927 107.338 126.147C112.344 133.945 92.8261 136.908 96.7515 142.37C101.01 148.295 115.5 149.042 122 151.221C134.556 155.43 139.739 162.748 143.813 174C144.989 177.25 150.481 188.087 147.303 190.972C144.686 193.348 137.288 192.015 134 191.999C120.506 191.934 107.378 188.111 94 188M154 115C155.843 122.73 164.07 127.124 171 130M86 120C85.9388 142.186 55.7081 153.04 37 157.497C31.6068 158.782 16.9847 159.97 14.1358 165.419C9.36656 174.541 27.6046 187.076 35 186.946C58.1294 186.538 75.7941 168.299 98 166.177C106.619 165.354 115.207 169.915 123 173M64 124C79.3876 135.203 57.0211 134.009 50 138M50 131L50 132M161 138L189 169M19 139L19 140M9 150L5 143L28 147M76 149C69.3314 158.579 56.5989 173.513 46.402 179.288C41.8342 181.875 37.9058 174.493 40 171L40 174L39 175M82 162C84.9003 154.535 90.3401 152.068 98 152M78 194C92.9552 176.919 108.053 178.586 128 179M165 190L165 191"/>
</svg>
