<?xml version="1.0" standalone="yes"?>
<svg width="432" height="361">
<path style="stroke:#000000; fill:none;" d="M80 270C108.388 270 136.612 269 165 269C181.631 269 199.905 271.014 215 262.637C240.059 248.729 242 228.048 242 202C242 191.572 242.079 178.027 233.943 170.184C217.607 154.439 188.092 143.367 166 139.464C159.724 138.355 153.271 139.733 147 138.787C131.317 136.42 112.117 127.309 102.106 114.999C97.1961 108.963 95.2344 96.6958 94.2863 89C93.56 83.1047 93.2728 75.8263 94.5177 70C100.476 42.1154 119.978 37.5985 145 36.9854C157.61 36.6764 170.326 35.0543 183 36.0934C191.329 36.7762 199.475 39.4633 208 40.0887C220.364 40.9959 235.304 45.2344 246 51.5479C254.499 56.5649 264.408 66.2626 274 68"/>
<path style="stroke:#080808; fill:none;" d="M221 41L222 42"/>
<path style="stroke:#f7f7f7; fill:none;" d="M113 43L112 44M244 52L245 53"/>
<path style="stroke:#7f7f7f; fill:none;" d="M100 54L99 55"/>
<path style="stroke:#484848; fill:none;" d="M103 55L101 57"/>
<path style="stroke:#f7f7f7; fill:none;" d="M103 56L101 58"/>
<path style="stroke:#7f7f7f; fill:none;" d="M262 59L265 62"/>
<path style="stroke:#f7f7f7; fill:none;" d="M259 61L263 65"/>
<path style="stroke:#484848; fill:none;" d="M260 61L263 64"/>
<path style="stroke:#7f7f7f; fill:none;" d="M102 113L106 117"/>
<path style="stroke:#f7f7f7; fill:none;" d="M99 115L103 119"/>
<path style="stroke:#484848; fill:none;" d="M100 115L103 118"/>
<path style="stroke:#f7f7f7; fill:none;" d="M117 129L118 130"/>
<path style="stroke:#080808; fill:none;" d="M197 148L198 149"/>
<path style="stroke:#f7f7f7; fill:none;" d="M210 157L211 158M227 167L228 168"/>
<path style="stroke:#7f7f7f; fill:none;" d="M241 183L242 184"/>
<path style="stroke:#f7f7f7; fill:none;" d="M238 185L239 186M243 230L242 231"/>
<path style="stroke:#7f7f7f; fill:none;" d="M229 251L228 252"/>
<path style="stroke:#484848; fill:none;" d="M232 252L229 255"/>
<path style="stroke:#f7f7f7; fill:none;" d="M232 253L230 255"/>
<path style="stroke:#7f7f7f; fill:none;" d="M220 257L219 258"/>
<path style="stroke:#484848; fill:none;" d="M222 259L220 261"/>
<path style="stroke:#f7f7f7; fill:none;" d="M223 259L221 261"/>
<path style="stroke:#202020; fill:none;" d="M79 269L78 270"/>
</svg>
