<?xml version="1.0" standalone="yes"?>
<svg width="387" height="275">
<path style="stroke:#000000; fill:none;" d="M314 32C314 55.0495 307.882 76.0386 301.155 98C298.214 107.602 296.107 118.997 289.785 126.985C281.349 137.645 264.956 152.36 251.275 141.08C244.983 135.893 245.617 124.341 244.715 117C241.772 93.0311 241.904 68.1213 240 44M123 64C139.482 54.1896 161.341 30.8878 183 36.3179C200.37 40.6726 203.037 68.0704 205.8 82C215.016 128.461 181.607 166.969 135 167M55 165C77.7611 171.791 121.784 159.542 106.41 128C97.6703 110.068 74.4582 110.191 62.804 94.8302C55.0363 84.5924 66.7036 74.7757 73.0895 67.4097C75.5005 64.6288 78.3985 60.0069 82.0895 58.9159C89.5239 56.7183 102.253 63.0158 110 64M139 58L138 158"/>
</svg>
