<?xml version="1.0" standalone="yes"?>
<svg width="466" height="461">
<path style="stroke:#000000; fill:none;" d="M344 36C344 69.4925 344.597 103.919 339.439 137C337.523 149.287 336.4 163.557 331.043 175C319.943 198.712 280.247 203.773 266.414 179C260.073 167.644 261 155.527 261 143C261 123.304 262.307 103.573 264.17 84C265.269 72.4451 267.321 57.2368 264 46M130 68C133.914 64.4773 139.391 62.7719 144 60.2091C156.751 53.1188 170.492 43.7955 186 47.5988C208.2 53.043 222.848 83.5368 226.537 104C235.28 152.49 210.963 216.573 167 241M162 67L163.961 134L159.174 173L156 255M43 281C61.5217 266.726 88.028 268.691 108 256.047C114.78 251.755 124.068 245.493 125.725 237C129.723 216.511 119.23 194.009 103 181.677C92.2792 173.531 78.7437 168.616 69.26 158.711C53.6286 142.384 54.1704 112.449 69.3009 95.9105C74.3557 90.3855 79.6292 84.985 86 81M293 269C300.186 269 311.251 267.983 316.427 274.147C320.689 279.223 319.192 288.09 317.761 294C313.882 310.015 304.9 328.102 288 333.181C278.729 335.968 260.313 338.397 255.742 326.961C249.384 311.053 258.193 287.958 270.015 277.285C278.75 269.399 293.309 264.224 300 278M219 270L189.332 336L184 358C192.174 347.583 207.964 341.295 221 340.104C230.269 339.257 236.1 341.227 245 337M116 282C116.974 282.357 106.365 296.268 104 299C88.6458 316.735 75.3572 342.955 71 366M149 282L138.077 307L113 362C128.806 362.865 145.08 356.318 160 352M69 325L62 326C69.5997 309.626 77.6448 290.682 96 284M117 284L89 356M41 295L37 335L61 327M64 327C49.1987 344.443 50 377.358 50 399M94 330L82 340M50 334L60 331M36 336C35.9563 348.76 27.7745 364.357 21 375M367 336C365.948 341.566 367.262 351.766 361 354.361C354.074 357.232 347.235 350.038 340 354.889C337.129 356.814 327.263 370.368 329 371M348 394C362.432 393.99 374.496 386.014 371.775 370C370.75 363.963 366.293 360.631 367.979 354.039C370.259 345.129 384.832 340.236 393 340M244 347L245 379L246.603 390.972L257 391.996L289 385M333 352L328 369M305 370C301.941 374.854 280.864 388.195 284.438 373.999C285.555 369.559 301.166 353.028 305.882 359.622C307.619 362.051 305.069 367.228 305 370L306 368L306 368M303 370L303 372M318 372C314 375.383 307.539 378.46 304 373M326 372L328 373M327 374L324 378M54 376L53 379M50 381L50 383"/>
</svg>
